# Blender 3.6.5
# www.blender.org
mtllib bruh.mtl.mtl
o Cube
v 5.000000 5.000000 -1.000000
v 5.000000 -5.000000 -1.000000
v 5.000000 5.000000 1.000000
v 5.000000 -5.000000 1.000000
v -5.000000 5.000000 -1.000000
v -5.000000 -5.000000 -1.000000
v -4.999093 5.001130 0.999860
v -5.000000 -5.000000 1.000000
v 1.008223 -3.024669 1.000000
v 1.008223 -3.003932 1.000000
v 1.008223 -1.008223 1.000000
v 5.000000 -3.024669 1.000000
v 5.000000 -1.008223 1.000000
v 1.059840 -1.008223 1.000000
v 5.000000 -3.024669 0.603059
v 5.000000 -3.024669 -1.000000
v 5.000000 -1.008223 -0.603059
v 5.000000 -1.008223 -1.000000
v 1.008223 -3.024669 -1.000000
v 1.008223 -1.028961 -1.000000
v 1.059842 -3.024669 -1.000000
v 1.008223 -1.008223 -1.000000
v -4.999455 1.008223 0.999916
v -4.999311 2.995231 0.920783
v -4.999275 2.995231 0.999888
v -5.000000 1.008223 -0.921122
v -5.000000 1.008223 -1.000000
v -5.000000 2.995232 -1.000000
v -1.052378 2.974732 0.999934
v -1.052378 2.995231 0.999934
v -1.052378 1.008223 0.999952
v -1.095162 1.008223 0.999952
v -1.052378 1.028658 -1.000000
v -1.052378 1.008223 -1.000000
v -1.095064 2.995232 -1.000000
v -1.052378 2.995232 -1.000000
v -0.993504 -5.000000 -0.799998
v -0.993504 -5.000000 -1.000000
v -2.980512 -5.000000 -1.000000
v -2.980512 -5.000000 1.000000
v -2.980512 -5.000000 0.799996
v -0.993504 -5.000000 1.000000
v -2.960042 -1.022941 0.999963
v -2.980512 -1.022941 0.999963
v -0.993504 -1.022941 0.999973
v -0.993504 -1.068864 0.999974
v -2.980512 -1.022941 -1.000000
v -2.980512 -1.068807 -1.000000
v -0.993504 -1.022941 -1.000000
v -1.013939 -1.022941 -1.000000
v 1.022941 5.000215 -0.618751
v 3.024668 5.000000 -1.000000
v 1.022941 5.000000 -1.000000
v 1.022941 5.000449 0.999944
v 3.024668 5.000224 0.618756
v 3.024668 5.000224 0.999972
v 3.004081 0.993504 1.000000
v 3.024668 0.993504 1.000000
v 1.022941 0.993504 0.999981
v 1.022941 1.044866 0.999981
v 3.024668 0.993504 -1.000000
v 3.024668 1.044819 -1.000000
v 1.022941 0.993504 -1.000000
v 1.043528 0.993504 -1.000000
vn 1.0000 -0.0000 -0.0000
vn -0.0000 1.0000 -0.0000
vn -0.0000 -1.0000 -0.0000
vn -1.0000 -0.0000 -0.0000
vn -1.0000 0.0001 0.0005
vn -0.0000 1.0000 -0.0006
vn 0.0001 1.0000 -0.0000
vn -0.0000 -0.0000 1.0000
vn -0.0000 -0.0000 -1.0000
vn -1.0000 -0.0000 0.0004
vn -1.0000 0.0001 0.0003
vn 0.0001 1.0000 -0.0001
vn -0.0000 1.0000 -0.0001
vn 0.0002 -0.0000 1.0000
vt 0.000000 0.000000
vt 0.625000 0.500000
vt 0.474794 0.750000
vt 0.474794 0.549618
vt 0.375000 0.750000
vt 0.424383 0.500000
vt 0.424383 0.700382
vt 0.625000 0.250000
vt 0.574859 0.009889
vt 0.574858 0.000000
vt 0.375000 0.000000
vt 0.525205 0.240140
vt 0.525206 0.250000
vt 0.225162 0.525000
vt 0.225162 0.500000
vt 0.125000 0.500000
vt 0.175487 0.724999
vt 0.175487 0.750000
vt 0.875000 0.750000
vt 0.724428 0.547657
vt 0.724427 0.500000
vt 0.674387 0.702347
vt 0.674388 0.750000
vt 0.525195 0.902387
vt 0.525189 1.000000
vt 0.474420 0.899843
vt 0.424383 0.400206
vt 0.375000 0.350162
vt 0.474427 0.350162
vt 0.474794 0.500000
vt 0.625000 0.750000
vt 0.424383 0.750000
vt 0.375000 0.500000
vt 0.625000 0.000000
vt 0.574881 0.250000
vt 0.375000 0.250000
vt 0.525189 0.000000
vt 0.225162 0.750000
vt 0.125000 0.750000
vt 0.175487 0.500000
vt 0.875000 0.500000
vt 0.724435 0.750000
vt 0.674383 0.500000
vt 0.625000 0.799388
vt 0.524834 0.799386
vt 0.474790 0.848508
vt 0.524834 0.799901
vt 0.474790 0.849798
vt 0.524831 0.849432
vt 0.526115 0.849432
vt 0.625000 0.849436
vt 0.625000 1.000000
vt 0.574858 1.000000
vt 0.574867 0.901320
vt 0.574355 0.901320
vt 0.424899 0.849796
vt 0.525195 0.901318
vt 0.424381 0.849796
vt 0.375000 0.899838
vt 0.473272 0.899843
vt 0.375000 1.000000
vt 0.375000 0.949513
vt 0.474418 0.949520
vt 0.474418 0.949008
vt 0.625000 0.450617
vt 0.526120 0.450617
vt 0.524838 0.450617
vt 0.474794 0.400206
vt 0.524838 0.401088
vt 0.524838 0.400574
vt 0.625000 0.400574
vt 0.574881 0.347623
vt 0.574881 0.348691
vt 0.525716 0.348691
vt 0.525206 0.348691
vt 0.474276 0.400206
vt 0.375000 0.300487
vt 0.525206 0.250000
vt 0.473280 0.300487
vt 0.474427 0.300487
vt 0.474427 0.349652
vt 0.424383 0.401496
s 0
usemtl Material
f 19/1/1 10/1/1 9/1/1
f 21/1/2 15/1/2 16/1/2
f 14/1/3 22/1/3 18/1/3
f 11/1/1 20/1/1 22/1/1
f 9/1/2 15/1/2 21/1/2
f 13/1/3 14/1/3 17/1/3
f 1/2/1 13/3/1 17/4/1
f 4/5/1 16/6/1 15/7/1
f 26/1/2 31/1/2 34/1/2
f 29/1/4 36/1/4 33/1/4
f 28/1/3 35/1/3 24/1/3
f 26/1/2 23/1/2 32/1/2
f 31/1/4 33/1/4 34/1/4
f 35/1/3 30/1/3 25/1/3
f 5/8/5 24/9/5 25/10/5
f 8/11/4 26/12/4 27/13/4
f 39/1/1 48/1/1 41/1/1
f 46/1/4 49/1/4 38/1/4
f 43/1/3 47/1/3 50/1/3
f 41/1/1 47/1/1 44/1/1
f 42/1/4 46/1/4 37/1/4
f 45/1/3 50/1/3 49/1/3
f 4/5/3 37/14/3 38/15/3
f 6/16/3 41/17/3 40/18/3
f 51/1/1 59/1/1 63/1/1
f 57/1/2 61/1/2 64/1/2
f 62/1/4 55/1/4 52/1/4
f 51/1/1 54/1/1 60/1/1
f 59/1/2 64/1/2 63/1/2
f 62/1/4 58/1/4 56/1/4
f 7/19/6 51/20/6 53/21/6
f 1/2/7 55/22/7 56/23/7
f 32/24/8 23/25/8 45/26/8
f 19/27/9 38/28/9 49/29/9
f 19/1/1 20/1/1 10/1/1
f 18/1/3 17/1/3 14/1/3
f 14/1/3 11/1/3 22/1/3
f 11/1/1 10/1/1 20/1/1
f 21/1/2 19/1/2 9/1/2
f 9/1/2 12/1/2 15/1/2
f 17/4/1 18/30/1 1/2/1
f 1/2/1 3/31/1 13/3/1
f 15/7/1 12/32/1 4/5/1
f 4/5/1 2/33/1 16/6/1
f 34/1/2 27/1/2 26/1/2
f 26/1/2 32/1/2 31/1/2
f 29/1/4 30/1/4 36/1/4
f 31/1/4 29/1/4 33/1/4
f 25/1/3 24/1/3 35/1/3
f 35/1/3 36/1/3 30/1/3
f 25/10/5 7/34/5 5/8/5
f 5/8/10 28/35/10 24/9/10
f 27/13/4 6/36/4 8/11/4
f 8/11/11 23/37/11 26/12/11
f 38/1/4 37/1/4 46/1/4
f 46/1/4 45/1/4 49/1/4
f 43/1/3 44/1/3 47/1/3
f 44/1/1 40/1/1 41/1/1
f 41/1/1 48/1/1 47/1/1
f 45/1/3 43/1/3 50/1/3
f 38/15/3 2/33/3 4/5/3
f 4/5/3 42/38/3 37/14/3
f 40/18/3 8/39/3 6/16/3
f 6/16/3 39/40/3 41/17/3
f 63/1/1 53/1/1 51/1/1
f 51/1/1 60/1/1 59/1/1
f 57/1/2 58/1/2 61/1/2
f 59/1/2 57/1/2 64/1/2
f 56/1/4 55/1/4 62/1/4
f 62/1/4 61/1/4 58/1/4
f 53/21/6 5/41/6 7/19/6
f 7/19/12 54/42/12 51/20/12
f 56/23/7 3/31/7 1/2/7
f 1/2/13 52/43/13 55/22/13
f 13/3/8 3/31/8 56/44/8
f 13/3/8 56/44/8 58/45/8
f 14/46/8 13/3/8 58/45/8
f 14/46/8 58/45/8 57/47/8
f 11/48/8 14/46/8 57/47/8
f 11/48/8 57/47/8 59/49/8
f 11/48/14 59/49/14 60/50/14
f 54/51/8 7/52/8 25/53/8
f 54/51/8 25/53/8 30/54/8
f 11/48/8 60/50/8 54/51/8
f 11/48/8 54/51/8 30/54/8
f 11/48/8 30/54/8 29/55/8
f 10/56/8 11/48/8 29/55/8
f 10/56/8 29/55/8 31/57/8
f 4/5/8 12/32/8 9/58/8
f 9/58/8 10/56/8 31/57/8
f 9/58/8 31/57/8 32/24/8
f 42/59/8 4/5/8 9/58/8
f 46/60/8 42/59/8 9/58/8
f 23/25/8 8/61/8 40/62/8
f 23/25/8 40/62/8 44/63/8
f 45/26/8 46/60/8 9/58/8
f 23/25/8 44/63/8 43/64/8
f 45/26/8 9/58/8 32/24/8
f 23/25/8 43/64/8 45/26/8
f 52/65/9 1/2/9 18/30/9
f 62/66/9 52/65/9 18/30/9
f 61/67/9 62/66/9 18/30/9
f 61/67/9 18/30/9 22/68/9
f 64/69/9 61/67/9 22/68/9
f 63/70/9 64/69/9 22/68/9
f 28/35/9 5/8/9 53/71/9
f 35/72/9 28/35/9 53/71/9
f 53/71/9 63/70/9 22/68/9
f 36/73/9 35/72/9 53/71/9
f 33/74/9 36/73/9 53/71/9
f 33/74/9 53/71/9 22/68/9
f 34/75/9 33/74/9 22/68/9
f 34/75/9 22/68/9 20/76/9
f 39/77/9 6/36/9 27/78/9
f 48/79/9 39/77/9 27/78/9
f 27/78/9 34/75/9 20/76/9
f 47/80/9 48/79/9 27/78/9
f 50/81/9 47/80/9 27/78/9
f 21/82/9 16/6/9 2/33/9
f 49/29/9 50/81/9 27/78/9
f 19/27/9 21/82/9 2/33/9
f 49/29/9 27/78/9 20/76/9
f 19/27/9 2/33/9 38/28/9
f 49/29/9 20/76/9 19/27/9
